<svg xmlns="http://www.w3.org/2000/svg" data-name="Layer 1" viewBox="0 0 64 80" x="0px" y="0px"><title>problem-solving-idea-creativity-motivation-share</title><path d="M23,17a2,2,0,0,1,1.33.52A1,1,0,0,0,26,16.78V8a1,1,0,0,0-1-1,20,20,0,0,0-9,37.84v7.34A3,3,0,0,0,14,55a3,3,0,0,0,.78,2A3,3,0,0,0,14,59a3,3,0,0,0,3,3H33a3,3,0,0,0,3-3,3,3,0,0,0-.78-2A3,3,0,0,0,36,55a3,3,0,0,0-2-2.82V44.84A19.92,19.92,0,0,0,45,28.05a1,1,0,0,0-.27-.74A1,1,0,0,0,44,27H37.82a1,1,0,0,0-1,1.33A1.89,1.89,0,0,1,37,29a2,2,0,0,1-4,0,1.89,1.89,0,0,1,.13-.67,1,1,0,0,0-1-1.33H26V21.22a1,1,0,0,0-1.67-.74A2,2,0,1,1,23,17ZM17,54H33a1,1,0,0,1,0,2H17a1,1,0,0,1,0-2Zm5-17H21a1,1,0,1,1,1-1Zm2,2h2V52H24Zm9,21H17a1,1,0,0,1,0-2H33a1,1,0,0,1,0,2ZM23,23a3.71,3.71,0,0,0,1-.13V28a1,1,0,0,0,1,1h6a4,4,0,0,0,8,0h3.88a17.94,17.94,0,0,1-10.3,14.31,1,1,0,0,0-.58.91V52H28V39h1a3,3,0,1,0-3-3v1H24V36a3,3,0,1,0-3,3h1V52H18V44.22a1,1,0,0,0-.58-.91A18,18,0,0,1,24,9v6.1A3.71,3.71,0,0,0,23,15a4,4,0,0,0,0,8Zm5,14V36a1,1,0,1,1,1,1Z"/><path d="M60,23c0-.32,0-.64,0-1A20,20,0,0,0,40,2a1,1,0,0,0-1,1v7.13A3.71,3.71,0,0,0,38,10a4,4,0,0,0,0,8,3.71,3.71,0,0,0,1-.13V23a1,1,0,0,0,1,1h6a4,4,0,0,0,8,0h5A1.1,1.1,0,0,0,60,23Zm-7.15-1a1,1,0,0,0-1,1.33A1.89,1.89,0,0,1,52,24a2,2,0,0,1-4,0,1.89,1.89,0,0,1,.13-.67,1,1,0,0,0-1-1.33H41V16.22a1,1,0,0,0-1.67-.74,2,2,0,1,1,0-3A1,1,0,0,0,41,11.78V4A18,18,0,0,1,58,22Z"/><text x="0" y="79" fill="#000000" font-size="5px" font-weight="bold" font-family="'Helvetica Neue', Helvetica, Arial-Unicode, Arial, Sans-serif">Created by Becris</text><text x="0" y="84" fill="#000000" font-size="5px" font-weight="bold" font-family="'Helvetica Neue', Helvetica, Arial-Unicode, Arial, Sans-serif">from the Noun Project</text></svg>