<svg xmlns:dc="http://purl.org/dc/elements/1.1/" xmlns:cc="http://creativecommons.org/ns#" xmlns:rdf="http://www.w3.org/1999/02/22-rdf-syntax-ns#" xmlns:svg="http://www.w3.org/2000/svg" xmlns="http://www.w3.org/2000/svg" xmlns:sodipodi="http://sodipodi.sourceforge.net/DTD/sodipodi-0.dtd" xmlns:inkscape="http://www.inkscape.org/namespaces/inkscape" version="1.1" x="0px" y="0px" viewBox="0 0 100 125" xml:space="preserve"><path d="M 7.6790367,1.666666 C 3.4440366,1.666666 0,5.110702 0,9.345702 V 28.984375 C 0,31.432708 1.1722396,33.593333 2.9622397,35 1.1722396,36.406666 0,38.565703 0,41.01237 v 19.638672 c 0,4.236667 3.4440366,7.682292 7.6790367,7.682292 H 48.333334 v 13.502603 c -3.26,0.665002 -5.832395,3.237397 -6.497396,6.497397 H 1.6666667 C 0.74666668,88.333334 0,89.078334 0,90.000001 c 0,0.921666 0.74666668,1.666666 1.6666667,1.666666 H 41.835938 c 0.775,3.798334 4.139063,6.666667 8.164063,6.666667 4.025,0 7.389062,-2.868333 8.164063,-6.666667 h 40.169271 c 0.92,0 1.666665,-0.745 1.666665,-1.666666 0,-0.921667 -0.746665,-1.666667 -1.666665,-1.666667 H 58.164064 c -0.665001,-3.26 -3.237396,-5.832395 -6.497396,-6.497397 V 68.333334 h 40.654297 c 4.235,0 7.679035,-3.444037 7.679035,-7.679037 V 41.01237 C 100,38.564036 98.827762,36.406666 97.037762,35 98.827762,33.593333 100,31.434296 100,28.98763 V 9.345702 c 0,-4.235 -3.444035,-7.679036 -7.679035,-7.679036 z m 0,3.333333 H 92.31771 c 2.398334,0 4.348959,1.949037 4.348959,4.345703 v 19.638673 c 0,2.398333 -1.949037,4.348958 -4.345704,4.348958 H 7.6790367 c -2.3966668,0 -4.3457033,-1.949037 -4.3457033,-4.345703 V 9.345702 c 0,-2.396666 1.9490365,-4.345703 4.3457033,-4.345703 z M 17.5,11.666666 c -4.135,0 -7.5,3.365 -7.5,7.5 0,4.135 3.365,7.5 7.5,7.5 4.135,0 7.5,-3.365 7.5,-7.5 0,-4.135 -3.365,-7.5 -7.5,-7.5 z m 0,3.333333 c 2.296667,0 4.166667,1.868334 4.166667,4.166667 0,2.298333 -1.87,4.166667 -4.166667,4.166667 -2.296666,0 -4.166666,-1.868334 -4.166666,-4.166667 0,-2.298333 1.87,-4.166667 4.166666,-4.166667 z m 39.166668,0 a 1.6666667,1.6666667 0 0 0 -1.666667,1.666667 1.6666667,1.6666667 0 0 0 1.666667,1.666667 1.6666667,1.6666667 0 0 0 1.666666,-1.666667 1.6666667,1.6666667 0 0 0 -1.666666,-1.666667 z m 6.666667,0 a 1.6666667,1.6666667 0 0 0 -1.666667,1.666667 1.6666667,1.6666667 0 0 0 1.666667,1.666667 1.6666667,1.6666667 0 0 0 1.666666,-1.666667 1.6666667,1.6666667 0 0 0 -1.666666,-1.666667 z m 6.666666,0 a 1.6666667,1.6666667 0 0 0 -1.666666,1.666667 1.6666667,1.6666667 0 0 0 1.666666,1.666667 1.6666667,1.6666667 0 0 0 1.666667,-1.666667 1.6666667,1.6666667 0 0 0 -1.666667,-1.666667 z m 6.666667,0 a 1.6666667,1.6666667 0 0 0 -1.666667,1.666667 1.6666667,1.6666667 0 0 0 1.666667,1.666667 1.6666667,1.6666667 0 0 0 1.666667,-1.666667 1.6666667,1.6666667 0 0 0 -1.666667,-1.666667 z m 6.666667,0 a 1.6666667,1.6666667 0 0 0 -1.666667,1.666667 1.6666667,1.6666667 0 0 0 1.666667,1.666667 1.6666667,1.6666667 0 0 0 1.666667,-1.666667 1.6666667,1.6666667 0 0 0 -1.666667,-1.666667 z m -23.333334,5 a 1.6666667,1.6666667 0 0 0 -1.666667,1.666667 1.6666667,1.6666667 0 0 0 1.666667,1.666667 1.6666667,1.6666667 0 0 0 1.666667,-1.666667 1.6666667,1.6666667 0 0 0 -1.666667,-1.666667 z m 6.666667,0 a 1.6666667,1.6666667 0 0 0 -1.666667,1.666667 1.6666667,1.6666667 0 0 0 1.666667,1.666667 1.6666667,1.6666667 0 0 0 1.666667,-1.666667 1.6666667,1.6666667 0 0 0 -1.666667,-1.666667 z m 6.666667,0 a 1.6666667,1.6666667 0 0 0 -1.666667,1.666667 1.6666667,1.6666667 0 0 0 1.666667,1.666667 1.6666667,1.6666667 0 0 0 1.666666,-1.666667 1.6666667,1.6666667 0 0 0 -1.666666,-1.666667 z m 6.666667,0 a 1.6666667,1.6666667 0 0 0 -1.666667,1.666667 1.6666667,1.6666667 0 0 0 1.666667,1.666667 1.6666667,1.6666667 0 0 0 1.666666,-1.666667 1.6666667,1.6666667 0 0 0 -1.666666,-1.666667 z m 6.666666,0 a 1.6666667,1.6666667 0 0 0 -1.666666,1.666667 1.6666667,1.6666667 0 0 0 1.666666,1.666667 1.6666667,1.6666667 0 0 0 1.666667,-1.666667 1.6666667,1.6666667 0 0 0 -1.666667,-1.666667 z M 7.6790367,36.666666 H 92.31771 c 2.398334,0 4.348959,1.949037 4.348959,4.345704 V 60.651042 C 96.666669,63.049375 94.717632,65 92.320965,65 H 7.6790367 C 5.2823699,65 3.3333334,63.050964 3.3333334,60.654297 V 41.01237 c 0,-2.396667 1.9490365,-4.345704 4.3457033,-4.345704 z M 17.5,43.333333 c -4.135,0 -7.5,3.365 -7.5,7.5 0,4.135 3.365,7.5 7.5,7.5 4.135,0 7.5,-3.365 7.5,-7.5 0,-4.135 -3.365,-7.5 -7.5,-7.5 z m 0,3.333334 c 2.296667,0 4.166667,1.868333 4.166667,4.166666 0,2.298334 -1.87,4.166667 -4.166667,4.166667 -2.296666,0 -4.166666,-1.868333 -4.166666,-4.166667 0,-2.298333 1.87,-4.166666 4.166666,-4.166666 z m 39.166668,0 A 1.6666667,1.6666667 0 0 0 55.000001,48.333333 1.6666667,1.6666667 0 0 0 56.666668,50 1.6666667,1.6666667 0 0 0 58.333334,48.333333 1.6666667,1.6666667 0 0 0 56.666668,46.666667 Z m 6.666667,0 A 1.6666667,1.6666667 0 0 0 61.666668,48.333333 1.6666667,1.6666667 0 0 0 63.333335,50 1.6666667,1.6666667 0 0 0 65.000001,48.333333 1.6666667,1.6666667 0 0 0 63.333335,46.666667 Z m 6.666666,0 A 1.6666667,1.6666667 0 0 0 68.333335,48.333333 1.6666667,1.6666667 0 0 0 70.000001,50 1.6666667,1.6666667 0 0 0 71.666668,48.333333 1.6666667,1.6666667 0 0 0 70.000001,46.666667 Z m 6.666667,0 A 1.6666667,1.6666667 0 0 0 75.000001,48.333333 1.6666667,1.6666667 0 0 0 76.666668,50 1.6666667,1.6666667 0 0 0 78.333335,48.333333 1.6666667,1.6666667 0 0 0 76.666668,46.666667 Z m 6.666667,0 A 1.6666667,1.6666667 0 0 0 81.666668,48.333333 1.6666667,1.6666667 0 0 0 83.333335,50 1.6666667,1.6666667 0 0 0 85.000002,48.333333 1.6666667,1.6666667 0 0 0 83.333335,46.666667 Z m -23.333334,5 A 1.6666667,1.6666667 0 0 0 58.333334,53.333333 1.6666667,1.6666667 0 0 0 60.000001,55 1.6666667,1.6666667 0 0 0 61.666668,53.333333 1.6666667,1.6666667 0 0 0 60.000001,51.666667 Z m 6.666667,0 A 1.6666667,1.6666667 0 0 0 65.000001,53.333333 1.6666667,1.6666667 0 0 0 66.666668,55 1.6666667,1.6666667 0 0 0 68.333335,53.333333 1.6666667,1.6666667 0 0 0 66.666668,51.666667 Z m 6.666667,0 A 1.6666667,1.6666667 0 0 0 71.666668,53.333333 1.6666667,1.6666667 0 0 0 73.333335,55 1.6666667,1.6666667 0 0 0 75.000001,53.333333 1.6666667,1.6666667 0 0 0 73.333335,51.666667 Z m 6.666667,0 A 1.6666667,1.6666667 0 0 0 78.333335,53.333333 1.6666667,1.6666667 0 0 0 80.000002,55 1.6666667,1.6666667 0 0 0 81.666668,53.333333 1.6666667,1.6666667 0 0 0 80.000002,51.666667 Z m 6.666666,0 A 1.6666667,1.6666667 0 0 0 85.000002,53.333333 1.6666667,1.6666667 0 0 0 86.666668,55 1.6666667,1.6666667 0 0 0 88.333335,53.333333 1.6666667,1.6666667 0 0 0 86.666668,51.666667 Z M 50.000001,85.000001 c 2.756667,0 5,2.243333 5,5 0,2.756667 -2.243333,5 -5,5 -2.756667,0 -5,-2.243333 -5,-5 0,-2.756667 2.243333,-5 5,-5 z" style="" stroke-width="1.00000012"/><text x="0" y="115" fill="#000000" font-size="5px" font-weight="bold" font-family="'Helvetica Neue', Helvetica, Arial-Unicode, Arial, Sans-serif">Created by mardjoe</text><text x="0" y="120" fill="#000000" font-size="5px" font-weight="bold" font-family="'Helvetica Neue', Helvetica, Arial-Unicode, Arial, Sans-serif">from the Noun Project</text></svg>