<svg xmlns="http://www.w3.org/2000/svg" xmlns:xlink="http://www.w3.org/1999/xlink" version="1.1" x="0px" y="0px" viewBox="0 0 80 100" style="enable-background:new 0 0 80 80;" xml:space="preserve"><path d="M29.2714233,40.7568359L12.2075195,57.8207397c-0.0078735,0.0079346-0.0102539,0.0186157-0.0177612,0.0267944  c-0.0723267,0.0771484-0.1299438,0.1660156-0.1751099,0.2636108c-0.0112305,0.0241089-0.0236816,0.0463257-0.0328979,0.071106  c-0.0059204,0.0161133-0.0162354,0.0297852-0.0213013,0.0462036l-3.9144897,12.472229  c-0.1114502,0.3549805-0.0161133,0.7431641,0.2469482,1.0063477c0.1905518,0.1904297,0.4458008,0.2929077,0.7071533,0.2929077  c0.1000977,0,0.2010498-0.0150757,0.2992554-0.0458984l12.4721069-3.9144897  c0.0164185-0.005188,0.0300903-0.0153809,0.0462036-0.0213623c0.0249023-0.0091553,0.0471191-0.0217285,0.071228-0.0328369  c0.0974731-0.045166,0.1864624-0.1027832,0.2634888-0.1751099c0.0081787-0.0075684,0.0189209-0.0098877,0.0269165-0.0177612  l17.0639038-17.0638428l20.9779663,20.9783936c0.1875,0.1875,0.4418945,0.2929077,0.7070313,0.2929077  c0.2651978,0,0.5195923-0.1054077,0.7070923-0.2929077l10.0716553-10.0717773c0.3907471-0.390564,0.3907471-1.0234985,0-1.4141235  L50.7287598,39.243042l20.2609863-20.2605591c0.6513062-0.6514282,1.0101929-1.5176392,1.0101929-2.4390259  s-0.3588867-1.7875977-1.0101929-2.4390259l-5.0942993-5.0941772c-1.3452148-1.3452148-3.5332031-1.3442993-4.8773804,0  L40.757019,29.2712402L19.7788086,8.2929688c-0.390686-0.390625-1.0234985-0.390625-1.4140625,0L8.2929077,18.3647461  c-0.1875,0.1875-0.2928467,0.4418945-0.2928467,0.7070313c0,0.2650757,0.1053467,0.5194702,0.2928467,0.7069702  L29.2714233,40.7568359z M10.5273438,69.4726563l2.847168-9.0708008l6.2236328,6.2236328L10.5273438,69.4726563z   M50.9956665,42.3378296l2.559082,2.5592041l-4.1929321,4.1932983c-0.390564,0.390625-0.390564,1.0234375,0,1.4140015  c0.1953125,0.1953125,0.4512329,0.2930298,0.7070313,0.2930298c0.2558594,0,0.5117188-0.0977173,0.7069702-0.2930298  l4.1929321-4.1932983l2.5595093,2.5595093l-2.1708374,2.1704102c-0.390564,0.3901978-0.390564,1.0234985,0,1.4141235  c0.1953125,0.1952515,0.4512329,0.2929688,0.7070313,0.2929688c0.2558594,0,0.5116577-0.0977173,0.7069702-0.2929688  l2.1708374-2.1705322l2.5592041,2.5592041l-2.1704102,2.1704102c-0.390625,0.390625-0.390625,1.0233765,0,1.4141235  c0.1953125,0.1952515,0.4511719,0.2928467,0.7069702,0.2928467s0.5117188-0.0975952,0.7070313-0.2928467l2.1704102-2.1705322  l2.559082,2.559082L61.28125,61.0102539c-0.390686,0.390625-0.390686,1.0233765,0,1.4140015  c0.1953125,0.1954346,0.4511108,0.2930298,0.7069702,0.2930298c0.2557983,0,0.5117188-0.0975952,0.7070313-0.2930298  l4.1933594-4.1932983l2.6972046,2.6973267l-8.6576538,8.6576538L40.6572266,49.3145752l3.9841309-3.9841309l4.673584-4.6731567  l0.2666016,0.2666016l-2.1704102,2.1703491c-0.390625,0.390625-0.390625,1.0234375,0,1.4140015  c0.1953125,0.1953125,0.4512329,0.2930298,0.7070313,0.2930298c0.2558594,0,0.5116577-0.0977173,0.7070923-0.2930298  L50.9956665,42.3378296z M21.472168,65.6713867l-2.8647461-2.8647461l42.9448242-42.9448853l2.8646851,2.8648071  L21.472168,65.6713867z M62.4320679,10.4242554c0.5478516-0.5458984,1.5014648-0.546814,2.0492554,0l5.0942993,5.0942993  c0.2734375,0.2739258,0.4243164,0.6376953,0.4243164,1.0249023c0,0.3867188-0.1503906,0.7504883-0.4243164,1.0244141  l-3.7445679,3.7445679l-7.1434937-7.1434937L62.4320679,10.4242554z M57.2734375,15.5829468l2.8646851,2.8648071  L17.1933594,61.3925781l-2.8647461-2.8647461L57.2734375,15.5829468z M19.0717163,10.4140625l2.6973267,2.6973267  l-2.1704102,2.1703491c-0.390625,0.390625-0.390625,1.0234375,0,1.4140015  c0.1953125,0.1953125,0.4512329,0.2930298,0.7070313,0.2930298c0.2558594,0,0.5116577-0.0977173,0.7070923-0.2930298  l2.1704102-2.1704102l2.559082,2.5592041l-2.1705322,2.1708374c-0.390564,0.390564-0.390564,1.0238647,0,1.4140625  c0.1954346,0.1953125,0.4512329,0.2929077,0.7070923,0.2929077s0.5117188-0.0975952,0.7070313-0.2929077l2.1704102-2.1708984  l2.5595093,2.5595093l-4.1932983,4.1929321c-0.390625,0.390564-0.390625,1.0233765,0,1.4140625  c0.1952515,0.1953125,0.4511719,0.2929077,0.7070923,0.2929077c0.2557983,0,0.5116577-0.0975952,0.7069702-0.2929077  l4.1932373-4.1929932l2.559082,2.5591431l-2.1707764,2.1704712c-0.390625,0.3900757-0.390625,1.0233765,0,1.4141235  c0.1952515,0.1952515,0.4511719,0.2928467,0.7070923,0.2928467c0.2557983,0,0.5116577-0.0975952,0.7069702-0.2928467  l2.1708374-2.1705322l2.5591431,2.559082l-2.1703491,2.1704102c-0.3907471,0.390686-0.3907471,1.0234985,0,1.4141235  c0.1952515,0.1953125,0.4510498,0.2929688,0.7069702,0.2929688s0.5117188-0.0976563,0.7070313-0.2929688l2.1703491-2.1704102  l0.2666016,0.2666016l-8.6571655,8.6577148L10.4140625,19.0717773L19.0717163,10.4140625z"/><text x="0" y="95" fill="#000000" font-size="5px" font-weight="bold" font-family="'Helvetica Neue', Helvetica, Arial-Unicode, Arial, Sans-serif">Created by Vectorstall</text><text x="0" y="100" fill="#000000" font-size="5px" font-weight="bold" font-family="'Helvetica Neue', Helvetica, Arial-Unicode, Arial, Sans-serif">from the Noun Project</text></svg>